<svg width="301" height="553" viewBox="0 0 301 553" fill="none" xmlns="http://www.w3.org/2000/svg">
<path d="M65 502L66.5 482.5L90.5 482C89.6667 491.833 88 512.4 88 516C86 518.8 79.1667 519.167 76 519C75.6667 519 75.1 517.7 75.5 512.5C75.9 507.3 68.6667 503.333 65 502Z" fill="white"/>
<path d="M126 505V483C135.2 484.6 146.167 483 150.5 482V493C143.7 493 140.333 497.667 139.5 500C139.667 501.667 139.8 505.8 139 509C133.4 510.6 128 507 126 505Z" fill="white"/>
<path d="M65 502L66.5 482.5L90.5 482C89.6667 491.833 88 512.4 88 516C86 518.8 79.1667 519.167 76 519C75.6667 519 75.1 517.7 75.5 512.5C75.9 507.3 68.6667 503.333 65 502Z" stroke="black" stroke-width="2"/>
<path d="M126 505V483C135.2 484.6 146.167 483 150.5 482V493C143.7 493 140.333 497.667 139.5 500C139.667 501.667 139.8 505.8 139 509C133.4 510.6 128 507 126 505Z" stroke="black" stroke-width="2"/>
<path d="M240 277L226 262.5C229.167 261 235.4 257.7 235 256.5C234.5 255 230 250 229.5 247C229 244 230 238.5 233 235C236 231.5 236.5 219 236.5 216.5C236.5 214 240.981 210.797 246 213.5C252.5 217 249.167 228.833 248.5 229.5C264.5 217.5 278.5 213.6 284.5 212C288.5 210.933 290.964 214 290 215.5C285.5 222.5 275.5 227.667 268 232.5L265.185 234.69C268.804 232.158 275.082 229.129 280.5 228.452C288.5 227.451 296.917 225 299 230C301.5 236 286.277 240.454 286 240.5C287.933 240.79 295 237.5 296 243.5C296.598 247.09 293 249 290 250.5C290.333 252.5 290.3 257 287.5 259C284 261.5 275.5 266.5 274 266.5C272.5 266.5 256.5 268.5 251.5 267.5C247.5 266.7 242.167 273.5 240 277Z" fill="#FFB286"/>
<path d="M248.5 229.5C249.167 228.833 252.5 217 246 213.5C240.981 210.797 236.5 214 236.5 216.5C236.5 219 236 231.5 233 235C230 238.5 229 244 229.5 247C230 250 234.5 255 235 256.5C235.4 257.7 229.167 261 226 262.5L240 277C242.167 273.5 247.5 266.7 251.5 267.5C256.5 268.5 272.5 266.5 274 266.5C275.5 266.5 284 261.5 287.5 259C290.3 257 290.333 252.5 290 250.5M248.5 229.5C264.5 217.5 278.5 213.6 284.5 212C288.5 210.933 290.964 214 290 215.5C285.5 222.5 275.5 227.667 268 232.5L263.5 236C266.5 233.333 274.1 229.252 280.5 228.452C288.5 227.451 296.917 225 299 230C301.5 236 286.277 240.454 286 240.5M248.5 229.5C248 230.5 246.2 232.7 245 233.5M269 245.5C272.071 242.813 279.398 241.589 286 240.5M286 240.5C287.933 240.79 295 237.5 296 243.5C296.598 247.09 293 249 290 250.5M290 250.5C288.167 248.5 280.8 246.7 266 255.5M259.5 252C256.5 249.333 248.4 247 240 259" stroke="black" stroke-width="2"/>
<path d="M98.6964 238.779V229.279C94.0297 227.946 83.5693 223.808 77.6964 219.779C70.23 214.658 60.0978 209.662 61.8078 207.159C57.1057 212.972 49.6005 218.58 41.1964 218.279C27.1964 217.779 8.69641 201.779 4.19641 183.279C-0.303586 164.779 9.19641 152.279 11.1964 151.279C12.1635 150.796 17.441 146.864 23.5 146L20.5 111.779L60.6963 109.279C60.6963 101.113 61.0963 84.2794 62.6963 82.2794C64.6963 79.7794 92.1963 72.2794 100.196 70.2794C108.196 68.2794 142.696 67.7794 170.696 71.2794C198.696 74.7794 193 76.5 197.196 79.7794C197.535 80.0441 198.173 80.4161 198.5 80C200.667 88.1755 202.696 103 202.696 107.779C202.696 112.704 203.696 118.779 198.196 137.279C193.796 152.079 189.5 162.446 187.5 165.779C190.333 169.613 195 175.221 196 179.5C197.5 185 198 193.5 195.696 203.779C195.187 206.05 195.696 204.038 192.196 212.279C188.509 220.963 168.696 231.279 159.696 232.779C150.696 234.279 133.196 235.779 128.696 235.279C125.19 234.89 116.974 233.52 113.006 232.833C115.091 233.209 118.816 234.139 119.196 235.279C119.596 236.479 119.363 240.113 119.196 241.779C112.196 242.279 98.2965 242.379 98.6964 238.779Z" fill="#FFB286"/>
<path d="M23.5 146C17.441 146.864 12.1634 150.796 11.1964 151.279C9.19641 152.279 -0.303586 164.779 4.19641 183.279C8.69641 201.779 27.1964 217.779 41.1964 218.279C52.3964 218.679 62 208.586 65.5 201.5C65.5 201.5 63.5 205.5 62 206.935C59.4709 209.354 70 214.5 77.6964 219.779C83.5693 223.808 94.0297 227.946 98.6964 229.279V238.779C98.2965 242.379 112.196 242.279 119.196 241.779C119.363 240.113 119.596 236.479 119.196 235.279C118.796 234.079 114.696 233.113 112.696 232.779C116.53 233.446 125.096 234.879 128.696 235.279C133.196 235.779 150.696 234.279 159.696 232.779C168.696 231.279 188.509 220.963 192.196 212.279C195.696 204.038 195.187 206.05 195.696 203.779C198 193.5 197.5 185 196 179.5C195 175.221 190.333 169.613 187.5 165.779C189.5 162.446 193.796 152.079 198.196 137.279C203.696 118.779 202.696 112.704 202.696 107.779C202.696 103 200.667 88.1755 198.5 80C198.173 80.4161 197.535 80.0441 197.196 79.7794C193 76.5 198.696 74.7794 170.696 71.2794C142.696 67.7794 108.196 68.2794 100.196 70.2794C92.1963 72.2794 64.6963 79.7794 62.6963 82.2794C61.0963 84.2794 60.6963 101.113 60.6963 109.279L20.5 111.779L23.5 146ZM23.5 146C36.5 145.5 41.1964 152.412 45.1963 156.279C37.8426 147.945 29.812 145.352 23.5 146ZM23.5 146C23.8288 145.953 23.4549 144.933 23.5 146ZM27.1963 130.779C35.5296 129.779 52.7963 128.079 55.1963 129.279M25.6963 120.779C34.1963 119.113 51.5963 116.279 53.1963 118.279M16.6963 162.779C25.6963 153 43.1963 166.379 45.1963 176.779" stroke="black" stroke-width="2"/>
<path d="M121 162.213C125.5 162.213 136.5 154.213 136.5 148.213C137 134.713 128.5 137.213 121 137.213C112.119 137.212 106 140.213 102.5 144.713C102 150.046 109.933 162.213 121 162.213Z" fill="white"/>
<path d="M165 162.713C170.5 163.74 181 153.741 181 148.741C180.5 139.241 167 136.241 159.5 136.241C150.619 136.241 148.5 142.241 148.5 142.741C147 151.241 154.121 160.68 165 162.713Z" fill="white"/>
<path d="M121 162.213C125.5 162.213 136.5 154.213 136.5 148.213C137 134.713 128.5 137.213 121 137.213C112.119 137.212 106 140.213 102.5 144.713C102 150.046 109.933 162.213 121 162.213Z" stroke="white"/>
<path d="M165 162.713C170.5 163.74 181 153.741 181 148.741C180.5 139.241 167 136.241 159.5 136.241C150.619 136.241 148.5 142.241 148.5 142.741C147 151.241 154.121 160.68 165 162.713Z" stroke="white"/>
<path d="M179 153.713C178.5 155.379 175.3 160.313 166.5 162.713C159.5 162.713 153.5 157.213 150 152.713M134 153.713C133.5 155.379 130.3 159.813 121.5 162.213C114.5 162.213 108.5 157.213 105 152.713" stroke="black"/>
<path d="M159.5 153.963C162.746 153.963 164.956 151.051 165.295 148.305C165.469 146.897 165.176 145.421 164.205 144.287C163.225 143.143 161.652 142.463 159.5 142.463C157.34 142.463 155.718 143.142 154.665 144.261C153.616 145.374 153.207 146.841 153.314 148.269C153.527 151.102 155.802 153.963 159.5 153.963ZM117 153.963C120.246 153.963 122.456 151.051 122.795 148.305C122.969 146.897 122.676 145.421 121.705 144.287C120.725 143.143 119.152 142.463 117 142.463C114.84 142.463 113.218 143.142 112.165 144.261C111.116 145.374 110.707 146.841 110.814 148.269C111.027 151.102 113.302 153.963 117 153.963Z" fill="black" stroke="black" stroke-width="1.5"/>
<path d="M20 111.213L60 108.012C60.6667 100.179 60.7857 83.5121 62 82.5121C70.5 75.5121 100.667 69.3454 114.5 67.5121C126.5 67.6787 152.9 68.2121 162.5 69.0121C172.1 69.8121 191.667 80.0461 199 82.7127C201.833 75.8794 203.7 66.3126 204.5 58.7126C205.5 49.2126 196.5 42.2126 195.5 42.2126C194.7 42.2126 183.333 41.2127 178.5 40.2127L177.5 28.7127C177.167 23.8793 172.5 16.1127 166.5 13.7127C159.071 10.7413 155.977 17.4732 155.513 18.4844L155.5 18.5119C148.5 33.7126 140 29.0119 139 18.5119C138.2 10.1119 134 7.01198 131.5 4.51195C128.833 0.845279 119.7 -1.08791 108.5 4.51209C97.3 10.1121 94.5 17.2127 93.5 20.7127C92.3333 27.8794 86.5 38.412 80.5 30.0121C73 19.5121 72 20.5119 66.5 18.5119C61 16.5119 55.5 25.0121 53.5 30.0121C51.9 34.0121 46.8333 44.3794 44.5 45.2127C43.8333 43.8794 39.4 39.8127 33 38.2127C26.6 36.6127 20.1667 56.3794 17 63.7127L20 111.213Z" fill="black" stroke="black"/>
<path d="M103 120.713C106.2 117.913 122.667 117.879 130.5 118.213C134.5 115.413 135.5 110.713 135.5 108.713C135 106.879 133.1 102.913 129.5 101.713C125 100.213 112.5 100.713 105.5 103.213C99.9 105.213 96.5 110.5 96.5 114.5C96.5 118 102 121.588 103 120.713Z" fill="black"/>
<path d="M180.469 118.726C173.735 116.341 161.195 117.485 154.5 118.213C149.3 116.613 148 113.379 148 111.713C147.667 109.546 149.5 103.713 153 101.713C155.912 100.049 167 99.7126 167.5 99.7126C173.5 99.7126 180.5 103.213 183.5 105.213C186.5 107.213 187.5 113 187.5 114.5C187.5 115.532 186.791 117.137 185.372 118.457C184.081 119.658 182.131 119.314 180.469 118.726Z" fill="black"/>
<path d="M103 120.713C106.2 117.913 122.667 117.879 130.5 118.213C134.5 115.413 135.5 110.713 135.5 108.713C135 106.879 133.1 102.913 129.5 101.713C125 100.213 112.5 100.713 105.5 103.213C99.9 105.213 96.5 110.5 96.5 114.5C96.5 118 102 121.588 103 120.713Z" stroke="black"/>
<path d="M180.469 118.726C173.735 116.341 161.195 117.485 154.5 118.213C149.3 116.613 148 113.379 148 111.713C147.667 109.546 149.5 103.713 153 101.713C155.912 100.049 167 99.7126 167.5 99.7126C173.5 99.7126 180.5 103.213 183.5 105.213C186.5 107.213 187.5 113 187.5 114.5C187.5 115.532 186.791 117.137 185.372 118.457C184.081 119.658 182.131 119.314 180.469 118.726Z" stroke="black"/>
<path d="M157.5 183.532C159.5 178.032 161.417 166.948 159 164.532C158.5 164.032 157 162.532 144 165.532" stroke="black" stroke-width="2"/>
<path d="M173 196.713C174.333 197.213 175.3 200.813 174.5 203.213C173.7 205.613 172.333 206.747 170.5 208.08L157.505 211.126H138.005C136.925 210.86 135.75 210.557 134.505 210.223C128.959 208.731 122.036 206.6 116.005 204.189C108.143 201.046 101.799 197.427 102.005 194.126C102.405 187.726 103.172 186.46 103.505 186.626C105.505 185.46 110.7 183.28 113.5 186.08C113.5 186.08 116.061 187.147 119 188.58C120.809 189.463 123.166 190.445 124.5 191.08C127.75 192.227 133.199 194.249 138.005 195.58C141.578 196.57 144.794 197.58 146.5 197.58C148.553 197.58 153.653 197.802 158.5 198.126C163.097 198.434 169.917 196.469 173 196.713Z" fill="white"/>
<path d="M158.5 198.126C153.653 197.802 148.553 197.58 146.5 197.58C144.794 197.58 141.578 196.57 138.005 195.58M158.5 198.126C163.097 198.434 169.917 196.469 173 196.713C174.333 197.213 175.3 200.813 174.5 203.213C173.7 205.613 172.333 206.747 170.5 208.08L157.505 211.126M158.5 198.126L157.505 211.126M157.505 211.126H138.005C136.925 210.86 135.75 210.557 134.505 210.223M138.005 195.58C133.199 194.249 127.75 192.227 124.5 191.08C123.166 190.445 120.809 189.463 119 188.58M138.005 195.58L134.505 210.223M134.505 210.223C128.959 208.731 122.036 206.6 116.005 204.189M119 188.58C116.061 187.147 113.5 186.08 113.5 186.08C110.7 183.28 105.505 185.46 103.505 186.626C103.172 186.46 102.405 187.726 102.005 194.126C101.799 197.427 108.143 201.046 116.005 204.189M119 188.58L116.005 204.189" stroke="black" stroke-width="1.5"/>
<path d="M134.5 227.5L133 238.5M146.5 227.5V239M157 226C157.5 229.5 158.8 236.6 160 237" stroke="black" stroke-width="2"/>
<path d="M91.2896 535C90.8896 536.6 81.7896 541.667 77.2896 544L70.5 540.781C63.202 546.531 43.8926 551.9 40.2896 551.5C35.7896 551 24.7896 549.5 18.2896 545C11.7896 540.5 20.2896 521 29.2896 523.5C36.4896 525.5 49.9563 519 55.7896 515.5C55.7896 513.5 55.8896 508.7 56.2896 505.5C56.6896 502.3 62.4563 501.167 65.2896 501C72.2896 501 74.7896 509.5 74.7896 509.5V517.5H84.2896C85.623 516.167 88.6896 513.7 90.2896 514.5C92.2896 515.5 91.7896 533 91.2896 535Z" fill="#454D58"/>
<path d="M77.2896 544C81.7896 541.667 90.8896 536.6 91.2896 535C91.7896 533 92.2896 515.5 90.2896 514.5C88.6896 513.7 85.623 516.167 84.2896 517.5H74.7896V509.5C74.7896 509.5 72.2896 501 65.2896 501C62.4563 501.167 56.6896 502.3 56.2896 505.5C55.8896 508.7 55.7896 513.5 55.7896 515.5C49.9563 519 36.4896 525.5 29.2896 523.5C20.2896 521 11.7896 540.5 18.2896 545C24.7896 549.5 35.7896 551 40.2896 551.5C43.8926 551.9 63.202 546.531 70.5 540.781M77.2896 544C77.2896 538 72.8896 530.9 73.2896 536.5C73.3892 537.895 72.3168 539.35 70.5 540.781M77.2896 544L70.5 540.781" stroke="black" stroke-width="2"/>
<path d="M123.447 526C123.847 527.6 132.947 532.667 137.447 535L144.237 531.781C151.535 537.531 170.822 542.5 174.447 542.5C185.447 542.5 200.161 541.911 204 535C209 526 201.5 514.5 185.447 514.5C177.975 514.5 164.781 510 158.947 506.5C158.947 504.5 158.847 499.7 158.447 496.5C158.047 493.3 152.281 492.167 149.447 492C142.447 492 139.947 500.5 139.947 500.5V508.5H130.447C129.114 507.167 126.047 504.7 124.447 505.5C122.447 506.5 122.947 524 123.447 526Z" fill="#454D58"/>
<path d="M137.447 535C132.947 532.667 123.847 527.6 123.447 526C122.947 524 122.447 506.5 124.447 505.5C126.047 504.7 129.114 507.167 130.447 508.5H139.947V500.5C139.947 500.5 142.447 492 149.447 492C152.281 492.167 158.047 493.3 158.447 496.5C158.847 499.7 158.947 504.5 158.947 506.5C164.781 510 177.975 514.5 185.447 514.5C201.5 514.5 209 526 204 535C200.161 541.911 185.447 542.5 174.447 542.5C170.822 542.5 151.535 537.531 144.237 531.781M137.447 535C137.447 529 141.847 521.9 141.447 527.5C141.348 528.895 142.42 530.35 144.237 531.781M137.447 535L144.237 531.781" stroke="black" stroke-width="2"/>
<path d="M134 355C135.2 356.6 145.167 358 150 358.5L157.273 468.5L158 479.5C149.6 483.9 128.833 482.333 119.5 481L119.33 470L118.061 387.959L118 388V384H115H103.5C101.63 408.038 98.2628 452.299 96.998 471C96.6843 475.639 96.5 478.705 96.5 479.5C86.9 483.5 66.8333 481.167 58 479.5C58.1883 479.029 58.7588 474.93 59.5668 468.5C62.1919 447.61 67.3238 402.115 70 376.5C73 370.5 72 364.5 73.5 358.5C76.7 359.3 87.8333 356.5 93 355H107H115.707H134Z" fill="#454D58"/>
<path d="M118 384H124L118 388V384ZM118 384L119.33 470M118 384H115M119.33 470L119.5 481C128.833 482.333 149.6 483.9 158 479.5L157.273 468.5M119.33 470C125.402 471.833 141.491 474.1 157.273 468.5M157.273 468.5L150 358.5C145.167 358 135.2 356.6 134 355C132.927 355 124.9 355 115.707 355M59.5668 468.5C62.1919 447.61 67.3238 402.115 70 376.5C73 370.5 72 364.5 73.5 358.5C76.7 359.3 87.8333 356.5 93 355C96.8163 355 101.812 355 107 355M59.5668 468.5C58.7588 474.93 58.1883 479.029 58 479.5C66.8333 481.167 86.9 483.5 96.5 479.5C96.5 478.705 96.6843 475.639 96.998 471M59.5668 468.5C59.5039 469 70.9961 472 96.998 471M96.998 471C98.2628 452.299 101.63 408.038 103.5 384H115M115 384L115.354 369.5M115.707 355C112.859 355 109.9 355 107 355M115.707 355L115.354 369.5M107 355C106.402 359.833 107.237 369.5 115.354 369.5" stroke="black" stroke-width="2"/>
<path d="M236.045 287.509C236.545 284.009 215.545 265.009 215.045 265.009C216.045 264.009 215.545 264.009 221.545 260.009C228.545 259.509 242.045 281.009 242.545 281.009C243.045 281.009 239.545 284.509 236.045 287.509Z" fill="white"/>
<path d="M50.0448 340.009L45.5 332C37.5 339 21.5 343.5 22.5 346C23.5 348.5 23.5448 349.009 27.5448 352.009C33.9448 352.409 45.2115 344.175 50.0448 340.009Z" fill="white"/>
<path d="M236.045 287.509C236.545 284.009 215.545 265.009 215.045 265.009C216.045 264.009 215.545 264.009 221.545 260.009C228.545 259.509 242.045 281.009 242.545 281.009C243.045 281.009 239.545 284.509 236.045 287.509Z" stroke="black" stroke-width="2"/>
<path d="M50.0448 340.009L45.5 332C37.5 339 21.5 343.5 22.5 346C23.5 348.5 23.5448 349.009 27.5448 352.009C33.9448 352.409 45.2115 344.175 50.0448 340.009Z" stroke="black" stroke-width="2"/>
<path d="M95.4472 238L102.947 241C106.614 241.333 115.247 241.6 120.447 240C122.749 239.292 124.418 243.523 125.591 249.5C127.068 257.023 127.761 267.313 127.947 274C127.488 278.824 125.952 287.731 122.947 294.898C121.592 298.131 119.937 301.01 117.947 303C117.186 303.761 113.385 299.454 108.994 293C101.846 282.492 92.6375 266.292 92.9473 257C92.9473 256 92.3835 254.529 92.1816 252.5C91.784 248.506 92.1156 243.095 92.4472 240L95.4472 238Z" fill="white"/>
<path d="M93.5 354.5C99.0888 352.199 105.11 350.33 110 347.614C112.547 346.199 114.788 344.555 116.5 342.5C118.683 343.864 120.866 345.378 122.947 346.857C128.494 350.799 133.319 354.5 135.5 354.5C132.019 354.631 127.603 354.775 122.947 354.895C109.77 355.236 94.6823 355.387 93.5 354.5Z" fill="white"/>
<path d="M108.994 293C113.385 299.454 117.186 303.761 117.947 303C119.937 301.01 121.592 298.131 122.947 294.898M108.994 293C101.846 282.492 92.6375 266.292 92.9473 257C92.9473 256 92.3835 254.529 92.1816 252.5M108.994 293C108.645 280.167 106.947 254.1 102.947 252.5M102.947 252.5C98.9473 250.9 94.1035 251.833 92.1816 252.5M102.947 252.5C106.947 252.5 115.547 252.5 117.947 252.5M92.1816 252.5C91.784 248.506 92.1156 243.095 92.4472 240L95.4472 238L102.947 241C106.614 241.333 115.247 241.6 120.447 240C122.749 239.292 124.418 243.523 125.591 249.5M122.947 294.898C125.952 287.731 127.488 278.824 127.947 274C127.761 267.313 127.068 257.023 125.591 249.5M122.947 294.898C122.281 280.765 120.347 252.5 117.947 252.5M117.947 252.5L125.591 249.5M110 347.614C105.11 350.33 99.0888 352.199 93.5 354.5C94.6823 355.387 109.77 355.236 122.947 354.895M110 347.614C112.547 346.199 114.788 344.555 116.5 342.5C118.683 343.864 120.866 345.378 122.947 346.857M110 347.614L108.994 354.5M122.947 346.857C128.494 350.799 133.319 354.5 135.5 354.5C132.019 354.631 127.603 354.775 122.947 354.895M122.947 346.857V354.895" stroke="black" stroke-width="2"/>
<path d="M112.904 247.472C113.446 247.592 114.183 247.795 114.904 248.156L119.904 242.972C121.07 242.138 123.704 241.072 124.904 243.472C126.404 246.472 126.904 253.971 125.904 254.971L122.404 258.471L115.404 255.62C114.569 256.145 113.627 256.399 112.904 256.472C111.914 256.561 110.42 256.409 109.316 255.62C107.346 257.404 102.904 260.771 100.904 259.971C98.4038 258.971 97.4038 257.971 96.9038 254.971C96.4038 251.972 94.9038 247.471 97.4038 246.471C97.4038 245.671 99.4038 245.471 99.9038 244.971C101.737 245.315 105.904 246.05 109.904 248.237C110.901 247.599 112.064 247.472 112.904 247.472Z" fill="#4999B7"/>
<path d="M114.904 248.156C114.183 247.795 113.446 247.592 112.904 247.472C112.064 247.472 110.901 247.599 109.904 248.237M114.904 248.156C116.179 248.794 117.404 249.927 117.404 251.972C117.404 253.784 116.495 254.933 115.404 255.62M114.904 248.156L119.904 242.972C121.07 242.138 123.704 241.072 124.904 243.472C126.404 246.472 126.904 253.971 125.904 254.971C125.104 255.771 123.237 257.638 122.404 258.471L115.404 255.62M115.404 255.62C114.569 256.145 113.627 256.399 112.904 256.472C111.914 256.561 110.42 256.409 109.316 255.62M109.316 255.62C108.376 254.947 107.72 253.812 107.904 251.972C108.102 249.988 108.923 248.866 109.904 248.237M109.316 255.62C107.346 257.404 102.904 260.771 100.904 259.971C98.4038 258.971 97.4038 257.971 96.9038 254.971C96.4038 251.972 94.9038 247.471 97.4038 246.471C97.4038 245.671 99.4038 245.471 99.9038 244.971C101.737 245.315 105.904 246.05 109.904 248.237" stroke="#11232A" stroke-width="2"/>
<path d="M151 339.175C151 343.175 153 351.508 154 355.175C154.524 357.175 151 357.175 145.5 358.175C140 359.175 130 351.175 117 341.675C116.2 348.875 83.5 358.5 69.5 359.675C69.8333 349.841 70.5 329.675 70.5 327.675C70.5 325.675 64.8333 306.042 62 296.475C49.8025 301.563 36.0172 307.302 35.0375 307.667C36.0265 307.695 44.0554 322.614 48 330.175C41.1667 335.675 26.1 346.575 20.5 346.175C13.5 345.675 7 323.675 5 320.175C3 316.675 1 308.675 1 301.175C1 295.175 25.3333 280.008 37.5 273.175C42 271.675 51.6 267.375 54.0001 262.175C53.0001 252.175 58.5001 254.175 64.5001 250.675C70.5001 247.175 83.0001 247.675 92.5 249.175C90.5 274.675 116 303.175 118 303.675C120 304.175 129 283.175 129.5 277.175C130 271.175 128.5 269.675 128 265.175C127.5 260.675 127 254.675 128 248.175C136.8 246.975 154 252.175 159.5 257.175L161 265.175L192 287.175C199.5 281.675 213 265.175 215 265.175C217.5 265.175 238 285.175 237.5 288.675C233.5 295.675 206.5 316.675 193.5 317.675C183.1 318.475 161.781 302.341 152.421 294.175C151.474 310.03 151 335.734 151 339.175Z" fill="#63858F"/>
<path d="M152.421 294.175C151.474 310.03 151 335.734 151 339.175C151 343.175 153 351.508 154 355.175C154.524 357.175 151 357.175 145.5 358.175C140 359.175 130 351.175 117 341.675M152.421 294.175C152.85 286.992 153.376 281.831 154 281.675C153.274 284.875 155.698 284.008 157 283.175C155.665 282.841 152.88 284.575 152.421 294.175ZM152.421 294.175C161.781 302.341 183.1 318.475 193.5 317.675C206.5 316.675 233.5 295.675 237.5 288.675C238 285.175 217.5 265.175 215 265.175C213 265.175 199.5 281.675 192 287.175L161 265.175L159.5 257.175C154 252.175 136.8 246.975 128 248.175C127 254.675 127.5 260.675 128 265.175C128.5 269.675 130 271.175 129.5 277.175C129 283.175 120 304.175 118 303.675M118 303.675C116 303.175 90.5 274.675 92.5 249.175C83.0001 247.675 70.5001 247.175 64.5001 250.675C58.5001 254.175 53.0001 252.175 54.0001 262.175C51.6 267.375 42 271.675 37.5 273.175C25.3333 280.008 1 295.175 1 301.175C1 308.675 3 316.675 5 320.175C7 323.675 13.5 345.675 20.5 346.175C26.1 346.575 41.1667 335.675 48 330.175C44 322.508 35.8 307.275 35 307.675C34.3972 307.976 49.0882 301.861 62 296.475M118 303.675C117 306.175 112 312.675 109 320.175C107.731 323.348 113.833 337.341 117 341.675M62 296.475C66.2227 294.714 70.2551 293.03 73.5 291.675L62 296.475ZM62 296.475C64.8333 306.042 70.5 325.675 70.5 327.675C70.5 329.675 69.8333 349.841 69.5 359.675C83.5 358.5 116.2 348.875 117 341.675M120.5 320.175C121.833 320.175 125 320.95 125 324.175C125 327.175 122.333 329.508 120.5 329.175C118.667 328.841 116.5 327.721 116.5 324.675C116.5 321.675 119.167 320.175 120.5 320.175Z" stroke="black" stroke-width="2"/>
<path d="M31 351.5C32.2 351.9 43.3744 345.833 48.2078 342C47.4718 344.167 47 348.5 51 348.5C59 349.5 73.3 355.8 72.5 367C69.5 371.5 69.185 371.891 67 370.5C66.4945 370.178 66.1419 369.718 65.9091 369.196C65.2845 370.285 64.5469 371.316 64 372L70 371.5L68 377C66 379.5 60.7 382.727 57.5 382.727C53.5819 388.453 49.7244 387.617 46.913 385.576C47.322 386.061 47.5625 386.41 47.5 386.5C46.3274 390.897 41.6167 389.623 37.9199 387.513C33.622 394.34 21.2534 380.283 23.2077 371C25.2077 361.5 34.2078 357.5 34.2078 356.5C34.2078 355.5 32.5 353 31 351.5Z" fill="#FFB286"/>
<path d="M38.2077 387C34.2078 395 21.2077 380.5 23.2077 371C25.2077 361.5 34.2078 357.5 34.2078 356.5C34.2078 355.5 32.5 353 31 351.5C32.2 351.9 43.3744 345.833 48.2078 342C47.4718 344.167 47 348.5 51 348.5C59 349.5 73.3 355.8 72.5 367C69.5 371.5 69.185 371.891 67 370.5C64.2688 368.761 66 363 67 365C67.8 366.6 65.3333 370.333 64 372L70 371.5L68 377C66 379.5 60.7 382.727 57.5 382.727M33.2078 383.5C33.2078 385 45.5 394 47.5 386.5C47.7056 386.203 44.6278 383.098 43.0632 381.582M43 381.5C43.0204 381.526 43.0414 381.554 43.0632 381.582M57.5 382.727C54.3 382.727 51.6667 378.667 50 376.5M57.5 382.727C51.0794 392.11 44.8215 383.873 43.0632 381.582" stroke="black" stroke-width="2"/>
</svg>
