<svg width="385" height="553" viewBox="0 0 385 553" fill="none" xmlns="http://www.w3.org/2000/svg">
<path d="M199.881 238.779V229.279C204.548 227.946 215.008 223.808 220.881 219.779C228.347 214.658 238.48 209.662 236.77 207.159C241.472 212.972 248.977 218.58 257.381 218.279C271.381 217.779 289.881 201.779 294.381 183.279C298.881 164.779 289.381 152.279 287.381 151.279C286.414 150.796 281.136 146.864 275.077 146L278.077 111.779L237.881 109.279C237.881 101.113 237.481 84.2794 235.881 82.2794C233.881 79.7794 206.381 72.2794 198.381 70.2794C190.381 68.2794 155.881 67.7794 127.881 71.2794C99.8811 74.7794 105.577 76.5 101.381 79.7794C101.042 80.0441 100.404 80.4161 100.077 80C97.9107 88.1755 95.8811 103 95.8811 107.779C95.8811 112.704 94.8811 118.779 100.381 137.279C104.781 152.079 109.077 162.446 111.077 165.779C108.244 169.613 103.577 175.221 102.577 179.5C101.077 185 100.577 193.5 102.881 203.779C103.39 206.05 102.881 204.038 106.381 212.279C110.069 220.963 129.881 231.279 138.881 232.779C147.881 234.279 165.381 235.779 169.881 235.279C173.387 234.89 181.603 233.52 185.571 232.833C183.486 233.209 179.761 234.139 179.381 235.279C178.981 236.479 179.214 240.113 179.381 241.779C186.381 242.279 200.281 242.379 199.881 238.779Z" fill="#FFB286"/>
<path d="M275.077 146C281.136 146.864 286.414 150.796 287.381 151.279C289.381 152.279 298.881 164.779 294.381 183.279C289.881 201.779 271.381 217.779 257.381 218.279C246.181 218.679 236.577 208.586 233.077 201.5C233.077 201.5 235.077 205.5 236.577 206.935C239.106 209.354 228.577 214.5 220.881 219.779C215.008 223.808 204.548 227.946 199.881 229.279V238.779C200.281 242.379 186.381 242.279 179.381 241.779C179.214 240.113 178.981 236.479 179.381 235.279C179.781 234.079 183.881 233.113 185.881 232.779C182.048 233.446 173.481 234.879 169.881 235.279C165.381 235.779 147.881 234.279 138.881 232.779C129.881 231.279 110.069 220.963 106.381 212.279C102.881 204.038 103.39 206.05 102.881 203.779C100.577 193.5 101.077 185 102.577 179.5C103.577 175.221 108.244 169.613 111.077 165.779C109.077 162.446 104.781 152.079 100.381 137.279C94.8811 118.779 95.8811 112.704 95.8811 107.779C95.8811 103 97.9107 88.1755 100.077 80C100.404 80.4161 101.042 80.0441 101.381 79.7794C105.577 76.5 99.8811 74.7794 127.881 71.2794C155.881 67.7794 190.381 68.2794 198.381 70.2794C206.381 72.2794 233.881 79.7794 235.881 82.2794C237.481 84.2794 237.881 101.113 237.881 109.279L278.077 111.779L275.077 146ZM275.077 146C262.077 145.5 257.381 152.412 253.381 156.279C260.735 147.945 268.765 145.352 275.077 146ZM275.077 146C274.749 145.953 275.122 144.933 275.077 146ZM271.381 130.779C263.048 129.779 245.781 128.079 243.381 129.279M272.881 120.779C264.381 119.113 246.981 116.279 245.381 118.279M281.881 162.779C272.881 153 255.381 166.379 253.381 176.779" stroke="black" stroke-width="2"/>
<path d="M188.5 158C175.32 167.885 168 159.5 162.077 148.213C159.5 130 170.077 123.5 177.577 123.5C186.459 123.5 193.5 126.5 197 131C197.5 136.333 200.5 149 188.5 158Z" fill="white"/>
<path d="M133.577 162.713C128.078 163.741 117.578 153.741 117.578 148.741C115.5 133.5 123.5 123.5 136.5 123.5C145.381 123.5 151 136.759 151 140C152.5 150.5 144.456 160.68 133.577 162.713Z" fill="white"/>
<path d="M188.5 158C175.32 167.885 168 159.5 162.077 148.213C159.5 130 170.077 123.5 177.577 123.5C186.459 123.5 193.5 126.5 197 131C197.5 136.333 200.5 149 188.5 158Z" stroke="white"/>
<path d="M133.577 162.713C128.078 163.741 117.578 153.741 117.578 148.741C115.5 133.5 123.5 123.5 136.5 123.5C145.381 123.5 151 136.759 151 140C152.5 150.5 144.456 160.68 133.577 162.713Z" stroke="white"/>
<path d="M119.577 153.713C120.077 155.379 123.277 160.313 132.077 162.713C139.077 162.713 145.077 157.213 148.577 152.713M164.577 153.713C165.077 155.379 168.277 159.813 177.077 162.213C184.077 162.213 190.077 157.213 193.577 152.713" stroke="black"/>
<path d="M119.5 132C118.908 131.54 118.908 131.539 118.908 131.539L118.909 131.538L118.911 131.536L118.916 131.53L118.934 131.507C118.949 131.488 118.971 131.46 119 131.425C119.057 131.355 119.141 131.253 119.251 131.125C119.47 130.869 119.792 130.507 120.21 130.074C121.044 129.208 122.261 128.054 123.8 126.9C126.868 124.599 131.275 122.25 136.5 122.25C140.777 122.25 143.877 124.395 145.981 126.608C147.033 127.715 147.847 128.848 148.447 129.76C148.71 130.16 148.934 130.521 149.116 130.814C149.141 130.854 149.165 130.893 149.189 130.93C149.397 131.265 149.513 131.445 149.576 131.52L148.424 132.48C148.278 132.305 148.098 132.016 147.915 131.722C147.891 131.684 147.867 131.645 147.842 131.605C147.659 131.311 147.446 130.967 147.194 130.584C146.622 129.714 145.863 128.66 144.894 127.642C142.957 125.605 140.223 123.75 136.5 123.75C131.725 123.75 127.632 125.901 124.7 128.1C123.239 129.196 122.081 130.292 121.29 131.114C120.895 131.524 120.592 131.865 120.39 132.101C120.289 132.219 120.212 132.311 120.162 132.373C120.152 132.386 120.142 132.398 120.134 132.408C120.123 132.422 120.114 132.433 120.107 132.441L120.095 132.457L120.092 132.46L120.092 132.461C120.092 132.461 120.092 132.46 119.5 132ZM163.47 129.97C163.543 129.897 163.662 129.751 163.826 129.551C164.458 128.778 165.759 127.187 167.68 125.771C170.169 123.937 173.822 122.25 179 122.25C183.178 122.25 187.597 123.938 191.031 125.708C192.758 126.598 194.258 127.52 195.383 128.286C195.945 128.669 196.418 129.016 196.78 129.302C197.126 129.575 197.417 129.828 197.576 130.02L196.424 130.98C196.375 130.922 196.197 130.753 195.85 130.479C195.521 130.219 195.078 129.893 194.539 129.526C193.461 128.792 192.013 127.902 190.344 127.042C186.987 125.312 182.822 123.75 179 123.75C174.178 123.75 170.831 125.313 168.57 126.979C166.848 128.248 165.817 129.501 165.136 130.33C164.896 130.622 164.699 130.862 164.53 131.03L163.47 129.97ZM139 153.75C135.815 153.75 133.557 151.16 133.206 148.602C133.026 147.296 133.332 145.928 134.321 144.889C135.308 143.853 136.872 143.25 139 143.25C141.138 143.25 142.749 143.853 143.807 144.864C144.869 145.879 145.296 147.233 145.185 148.562C144.964 151.21 142.631 153.75 139 153.75ZM183.5 153.75C180.315 153.75 178.057 151.16 177.706 148.602C177.526 147.296 177.832 145.928 178.821 144.889C179.808 143.853 181.372 143.25 183.5 143.25C185.638 143.25 187.249 143.853 188.307 144.864C189.369 145.879 189.796 147.233 189.685 148.562C189.464 151.21 187.131 153.75 183.5 153.75Z" fill="black" stroke="black" stroke-width="1.5"/>
<path d="M278.577 111.213L238.577 108.012C237.911 100.179 237.792 83.5121 236.577 82.5121C228.077 75.5121 197.911 69.3454 184.077 67.5121C172.077 67.6787 145.677 68.2121 136.077 69.0121C126.477 69.8121 106.911 80.0461 99.5774 82.7127C96.7441 75.8794 94.8774 66.3126 94.0774 58.7126C93.0774 49.2126 102.077 42.2126 103.077 42.2126C103.877 42.2126 115.244 41.2127 120.077 40.2127L121.077 28.7127C121.411 23.8793 126.077 16.1127 132.077 13.7127C139.506 10.7413 142.6 17.4732 143.065 18.4844L143.077 18.5119C150.077 33.7126 158.577 29.0119 159.577 18.5119C160.377 10.1119 164.577 7.01198 167.077 4.51195C169.744 0.845279 178.877 -1.08791 190.077 4.51209C201.277 10.1121 204.077 17.2127 205.077 20.7127C206.244 27.8794 212.077 38.412 218.077 30.0121C225.577 19.5121 226.577 20.5119 232.077 18.5119C237.577 16.5119 243.077 25.0121 245.077 30.0121C246.677 34.0121 251.744 44.3794 254.077 45.2127C254.744 43.8794 259.177 39.8127 265.577 38.2127C271.977 36.6127 278.411 56.3794 281.577 63.7127L278.577 111.213Z" fill="black" stroke="black"/>
<path d="M194.3 113.5C191.1 110.7 175.911 117.879 168.077 118.212C164.077 115.412 163.077 110.712 163.077 108.713C163.577 106.879 165.477 102.913 169.077 101.713C173.577 100.213 188.3 97.2125 195.3 99.7125C200.9 101.712 200.3 103.5 200.3 107.5C200.3 111 195.3 114.375 194.3 113.5Z" fill="black"/>
<path d="M121 109.599C128.785 110.826 136.857 116.191 144.3 117C149.5 115.4 150.577 113.379 150.577 111.713C150.911 109.546 148.3 105 144.8 103C141.888 101.336 131.8 98.9999 131.3 99C125.3 99 121.8 99.7125 118.8 101.713C115.8 103.713 115.3 105.5 115.3 107C115.3 108.388 117.012 108.246 119.643 109.236C120.082 109.401 120.537 109.526 121 109.599Z" fill="black"/>
<path d="M194.3 113.5C191.1 110.7 175.911 117.879 168.077 118.212C164.077 115.412 163.077 110.712 163.077 108.713C163.577 106.879 165.477 102.913 169.077 101.713C173.577 100.213 188.3 97.2125 195.3 99.7125C200.9 101.712 200.3 103.5 200.3 107.5C200.3 111 195.3 114.375 194.3 113.5Z" stroke="black"/>
<path d="M121 109.599C128.785 110.826 136.857 116.191 144.3 117C149.5 115.4 150.577 113.379 150.577 111.713C150.911 109.546 148.3 105 144.8 103C141.888 101.336 131.8 98.9999 131.3 99C125.3 99 121.8 99.7125 118.8 101.713C115.8 103.713 115.3 105.5 115.3 107C115.3 108.388 117.012 108.246 119.643 109.236C120.082 109.401 120.537 109.526 121 109.599Z" stroke="black"/>
<path d="M141.077 183.532C139.077 178.032 137.161 166.948 139.577 164.532C140.077 164.032 141.577 162.532 154.577 165.532" stroke="black" stroke-width="2"/>
<path d="M164.077 227.5L165.577 238.5M152.077 227.5V239M141.577 226C141.077 229.5 139.777 236.6 138.577 237" stroke="black" stroke-width="2"/>
<path d="M235.277 502L233.777 482.5L209.777 482C210.611 491.833 212.277 512.4 212.277 516C214.277 518.8 221.111 519.167 224.277 519C224.611 519 225.177 517.7 224.777 512.5C224.377 507.3 231.611 503.333 235.277 502Z" fill="white"/>
<path d="M174.277 505V483C165.077 484.6 154.111 483 149.777 482V493C156.577 493 159.944 497.667 160.777 500C160.611 501.667 160.477 505.8 161.277 509C166.877 510.6 172.277 507 174.277 505Z" fill="white"/>
<path d="M235.277 502L233.777 482.5L209.777 482C210.611 491.833 212.277 512.4 212.277 516C214.277 518.8 221.111 519.167 224.277 519C224.611 519 225.177 517.7 224.777 512.5C224.377 507.3 231.611 503.333 235.277 502Z" stroke="black" stroke-width="2"/>
<path d="M174.277 505V483C165.077 484.6 154.111 483 149.777 482V493C156.577 493 159.944 497.667 160.777 500C160.611 501.667 160.477 505.8 161.277 509C166.877 510.6 172.277 507 174.277 505Z" stroke="black" stroke-width="2"/>
<path d="M324 278.221L310 263.721C313.167 262.221 319.4 258.921 319 257.721C318.5 256.221 314 251.221 313.5 248.221C313 245.221 314 239.721 317 236.221C320 232.721 320.5 220.221 320.5 217.721C320.5 215.221 324.981 212.018 330 214.721C336.5 218.221 333.167 230.054 332.5 230.721C348.5 218.721 362.5 214.821 368.5 213.221C372.5 212.154 374.964 215.221 374 216.721C369.5 223.721 359.5 228.887 352 233.721L349.185 235.91C352.804 233.379 359.082 230.35 364.5 229.672C372.5 228.672 380.917 226.221 383 231.221C385.5 237.221 370.277 241.675 370 241.721C371.933 242.011 379 238.721 380 244.721C380.598 248.311 377 250.221 374 251.721C374.333 253.721 374.3 258.221 371.5 260.221C368 262.721 359.5 267.721 358 267.721C356.5 267.721 340.5 269.721 335.5 268.721C331.5 267.921 326.167 274.721 324 278.221Z" fill="#FFB286"/>
<path d="M332.5 230.721C333.167 230.054 336.5 218.221 330 214.721C324.981 212.018 320.5 215.221 320.5 217.721C320.5 220.221 320 232.721 317 236.221C314 239.721 313 245.221 313.5 248.221C314 251.221 318.5 256.221 319 257.721C319.4 258.921 313.167 262.221 310 263.721L324 278.221C326.167 274.721 331.5 267.921 335.5 268.721C340.5 269.721 356.5 267.721 358 267.721C359.5 267.721 368 262.721 371.5 260.221C374.3 258.221 374.333 253.721 374 251.721M332.5 230.721C348.5 218.721 362.5 214.821 368.5 213.221C372.5 212.154 374.964 215.221 374 216.721C369.5 223.721 359.5 228.887 352 233.721L347.5 237.221C350.5 234.554 358.1 230.472 364.5 229.672C372.5 228.672 380.917 226.221 383 231.221C385.5 237.221 370.277 241.675 370 241.721M332.5 230.721C332 231.721 330.2 233.921 329 234.721M353 246.721C356.071 244.033 363.398 242.809 370 241.721M370 241.721C371.933 242.011 379 238.721 380 244.721C380.598 248.311 377 250.221 374 251.721M374 251.721C372.167 249.721 364.8 247.921 350 256.721M343.5 253.221C340.5 250.554 332.4 248.221 324 260.221" stroke="black" stroke-width="2"/>
<path d="M60.2772 277L74.2772 262.5C71.1106 261 64.8772 257.7 65.2772 256.5C65.7772 255 70.2772 250 70.7772 247C71.2772 244 70.2772 238.5 67.2772 235C64.2772 231.5 63.7772 219 63.7772 216.5C63.7772 214 59.2967 210.797 54.2772 213.5C47.7772 217 51.1106 228.833 51.7772 229.5C35.7772 217.5 21.7772 213.6 15.7772 212C11.7772 210.933 9.31306 214 10.2772 215.5C14.7769 222.5 24.7772 227.667 32.2772 232.5L35.0926 234.69C31.4735 232.158 25.1953 229.129 19.7772 228.452C11.7772 227.451 3.3606 225 1.27722 230C-1.22278 236 14.0006 240.454 14.2772 240.5C12.3447 240.79 5.27722 237.5 4.27722 243.5C3.67879 247.09 7.27722 249 10.2772 250.5C9.94389 252.5 9.97722 257 12.7772 259C16.2772 261.5 24.7772 266.5 26.2772 266.5C27.7772 266.5 43.7772 268.5 48.7772 267.5C52.7772 266.7 58.1106 273.5 60.2772 277Z" fill="#FFB286"/>
<path d="M51.7772 229.5C51.1106 228.833 47.7772 217 54.2772 213.5C59.2967 210.797 63.7772 214 63.7772 216.5C63.7772 219 64.2772 231.5 67.2772 235C70.2772 238.5 71.2772 244 70.7772 247C70.2772 250 65.7772 255 65.2772 256.5C64.8772 257.7 71.1106 261 74.2772 262.5L60.2772 277C58.1106 273.5 52.7772 266.7 48.7772 267.5C43.7772 268.5 27.7772 266.5 26.2772 266.5C24.7772 266.5 16.2772 261.5 12.7772 259C9.97722 257 9.94389 252.5 10.2772 250.5M51.7772 229.5C35.7772 217.5 21.7772 213.6 15.7772 212C11.7772 210.933 9.31306 214 10.2772 215.5C14.7769 222.5 24.7772 227.667 32.2772 232.5L36.7772 236C33.7772 233.333 26.1772 229.252 19.7772 228.452C11.7772 227.451 3.3606 225 1.27722 230C-1.22278 236 14.0006 240.454 14.2772 240.5M51.7772 229.5C52.2772 230.5 54.0772 232.7 55.2772 233.5M31.2772 245.5C28.2059 242.813 20.8795 241.589 14.2772 240.5M14.2772 240.5C12.3447 240.79 5.27722 237.5 4.27722 243.5C3.67879 247.09 7.27722 249 10.2772 250.5M10.2772 250.5C12.1106 248.5 19.4772 246.7 34.2772 255.5M40.7772 252C43.7772 249.333 51.8772 247 60.2772 259" stroke="black" stroke-width="2"/>
<path d="M208.988 535C209.388 536.6 218.488 541.667 222.988 544L229.777 540.781C237.075 546.531 256.385 551.9 259.988 551.5C264.488 551 275.488 549.5 281.988 545C288.488 540.5 279.988 521 270.988 523.5C263.788 525.5 250.321 519 244.488 515.5C244.488 513.5 244.388 508.7 243.988 505.5C243.588 502.3 237.821 501.167 234.988 501C227.988 501 225.488 509.5 225.488 509.5V517.5H215.988C214.654 516.167 211.588 513.7 209.988 514.5C207.988 515.5 208.488 533 208.988 535Z" fill="#454D58"/>
<path d="M222.988 544C218.488 541.667 209.388 536.6 208.988 535C208.488 533 207.988 515.5 209.988 514.5C211.588 513.7 214.654 516.167 215.988 517.5H225.488V509.5C225.488 509.5 227.988 501 234.988 501C237.821 501.167 243.588 502.3 243.988 505.5C244.388 508.7 244.488 513.5 244.488 515.5C250.321 519 263.788 525.5 270.988 523.5C279.988 521 288.488 540.5 281.988 545C275.488 549.5 264.488 551 259.988 551.5C256.385 551.9 237.075 546.531 229.777 540.781M222.988 544C222.988 538 227.388 530.9 226.988 536.5C226.888 537.895 227.96 539.35 229.777 540.781M222.988 544L229.777 540.781" stroke="black" stroke-width="2"/>
<path d="M176.83 526C176.43 527.6 167.33 532.667 162.83 535L156.04 531.781C148.742 537.531 129.455 542.5 125.83 542.5C114.83 542.5 100.116 541.911 96.2771 535C91.277 526 98.777 514.5 114.83 514.5C122.303 514.5 135.497 510 141.33 506.5C141.33 504.5 141.43 499.7 141.83 496.5C142.23 493.3 147.997 492.167 150.83 492C157.83 492 160.33 500.5 160.33 500.5V508.5H169.83C171.163 507.167 174.23 504.7 175.83 505.5C177.83 506.5 177.33 524 176.83 526Z" fill="#454D58"/>
<path d="M162.83 535C167.33 532.667 176.43 527.6 176.83 526C177.33 524 177.83 506.5 175.83 505.5C174.23 504.7 171.163 507.167 169.83 508.5H160.33V500.5C160.33 500.5 157.83 492 150.83 492C147.997 492.167 142.23 493.3 141.83 496.5C141.43 499.7 141.33 504.5 141.33 506.5C135.497 510 122.303 514.5 114.83 514.5C98.777 514.5 91.277 526 96.2771 535C100.116 541.911 114.83 542.5 125.83 542.5C129.455 542.5 148.742 537.531 156.04 531.781M162.83 535C162.83 529 158.43 521.9 158.83 527.5C158.93 528.895 157.857 530.35 156.04 531.781M162.83 535L156.04 531.781" stroke="black" stroke-width="2"/>
<path d="M166.277 355C165.077 356.6 155.111 358 150.277 358.5L143.004 468.5L142.277 479.5C150.677 483.9 171.444 482.333 180.777 481L180.947 470L182.216 387.959L182.277 388V384H185.277H196.777C198.647 408.038 202.014 452.299 203.279 471C203.593 475.639 203.777 478.705 203.777 479.5C213.377 483.5 233.444 481.167 242.277 479.5C242.089 479.029 241.518 474.93 240.71 468.5C238.085 447.61 232.953 402.115 230.277 376.5C227.277 370.5 228.277 364.5 226.777 358.5C223.577 359.3 212.444 356.5 207.277 355H193.277H184.57H166.277Z" fill="#454D58"/>
<path d="M182.277 384H176.277L182.277 388V384ZM182.277 384L180.947 470M182.277 384H185.277M180.947 470L180.777 481C171.444 482.333 150.677 483.9 142.277 479.5L143.004 468.5M180.947 470C174.875 471.833 158.786 474.1 143.004 468.5M143.004 468.5L150.277 358.5C155.111 358 165.077 356.6 166.277 355C167.35 355 175.377 355 184.57 355M240.71 468.5C238.085 447.61 232.953 402.115 230.277 376.5C227.277 370.5 228.277 364.5 226.777 358.5C223.577 359.3 212.444 356.5 207.277 355C203.461 355 198.466 355 193.277 355M240.71 468.5C241.518 474.93 242.089 479.029 242.277 479.5C233.444 481.167 213.377 483.5 203.777 479.5C203.777 478.705 203.593 475.639 203.279 471M240.71 468.5C240.773 469 229.281 472 203.279 471M203.279 471C202.014 452.299 198.647 408.038 196.777 384H185.277M185.277 384L184.924 369.5M184.57 355C187.418 355 190.378 355 193.277 355M184.57 355L184.924 369.5M193.277 355C193.875 359.833 193.041 369.5 184.924 369.5" stroke="black" stroke-width="2"/>
<path d="M63.5452 287.509C63.0452 284.009 84.0452 265.009 84.5452 265.009C83.5452 264.009 84.0452 264.009 78.0452 260.009C71.0452 259.509 57.5452 281.009 57.0452 281.009C56.5452 281.009 60.0452 284.509 63.5452 287.509Z" fill="white" stroke="black" stroke-width="2"/>
<path d="M321 289.509C321.5 286.009 300.5 267.009 300 267.009C301 266.009 300.5 266.009 306.5 262.009C313.5 261.509 327 283.009 327.5 283.009C328 283.009 324.5 286.509 321 289.509Z" fill="white" stroke="black" stroke-width="2"/>
<path d="M204.143 238L196.643 241C192.976 241.333 184.343 241.6 179.143 240C176.841 239.292 175.172 243.523 173.999 249.5C172.522 257.023 171.829 267.313 171.643 274C172.103 278.824 173.638 287.731 176.643 294.898C177.999 298.131 179.653 301.01 181.643 303C182.404 303.761 186.206 299.454 190.596 293C197.744 282.492 206.953 266.292 206.643 257C206.643 256 207.207 254.529 207.409 252.5C207.806 248.506 207.475 243.095 207.143 240L204.143 238Z" fill="white"/>
<path d="M206.09 354.5C200.502 352.199 194.48 350.33 189.59 347.614C187.043 346.199 184.803 344.555 183.09 342.5C180.907 343.864 178.724 345.378 176.643 346.857C171.097 350.799 166.272 354.5 164.09 354.5C167.571 354.631 171.988 354.775 176.643 354.895C189.82 355.236 204.908 355.387 206.09 354.5Z" fill="white"/>
<path d="M190.596 293C186.206 299.454 182.404 303.761 181.643 303C179.653 301.01 177.999 298.131 176.643 294.898M190.596 293C197.744 282.492 206.953 266.292 206.643 257C206.643 256 207.207 254.529 207.409 252.5M190.596 293C190.945 280.167 192.643 254.1 196.643 252.5M196.643 252.5C200.643 250.9 205.487 251.833 207.409 252.5M196.643 252.5C192.643 252.5 184.043 252.5 181.643 252.5M207.409 252.5C207.806 248.506 207.475 243.095 207.143 240L204.143 238L196.643 241C192.976 241.333 184.343 241.6 179.143 240C176.841 239.292 175.172 243.523 173.999 249.5M176.643 294.898C173.638 287.731 172.103 278.824 171.643 274C171.829 267.313 172.522 257.023 173.999 249.5M176.643 294.898C177.31 280.765 179.243 252.5 181.643 252.5M181.643 252.5L173.999 249.5M189.59 347.614C194.48 350.33 200.502 352.199 206.09 354.5C204.908 355.387 189.82 355.236 176.643 354.895M189.59 347.614C187.043 346.199 184.803 344.555 183.09 342.5C180.907 343.864 178.724 345.378 176.643 346.857M189.59 347.614L190.596 354.5M176.643 346.857C171.097 350.799 166.272 354.5 164.09 354.5C167.571 354.631 171.988 354.775 176.643 354.895M176.643 346.857V354.895" stroke="black" stroke-width="2"/>
<path d="M186.686 247.472C186.145 247.592 185.407 247.795 184.687 248.156L179.687 242.972C178.52 242.138 175.887 241.072 174.687 243.472C173.187 246.472 172.687 253.971 173.687 254.971L177.187 258.471L184.187 255.62C185.022 256.145 185.964 256.399 186.686 256.472C187.676 256.561 189.171 256.409 190.274 255.62C192.245 257.404 196.687 260.771 198.687 259.971C201.187 258.971 202.187 257.971 202.687 254.971C203.187 251.972 204.687 247.471 202.187 246.471C202.187 245.671 200.187 245.471 199.687 244.971C197.853 245.315 193.686 246.05 189.686 248.237C188.689 247.599 187.527 247.472 186.686 247.472Z" fill="#4999B7"/>
<path d="M184.687 248.156C185.407 247.795 186.145 247.592 186.686 247.472C187.527 247.472 188.689 247.599 189.686 248.237M184.687 248.156C183.411 248.794 182.186 249.927 182.186 251.972C182.186 253.784 183.095 254.933 184.187 255.62M184.687 248.156L179.687 242.972C178.52 242.138 175.887 241.072 174.687 243.472C173.187 246.472 172.687 253.971 173.687 254.971C174.487 255.771 176.353 257.638 177.187 258.471L184.187 255.62M184.187 255.62C185.022 256.145 185.964 256.399 186.686 256.472C187.676 256.561 189.171 256.409 190.274 255.62M190.274 255.62C191.215 254.947 191.871 253.812 191.686 251.972C191.488 249.988 190.667 248.866 189.686 248.237M190.274 255.62C192.245 257.404 196.687 260.771 198.687 259.971C201.187 258.971 202.187 257.971 202.687 254.971C203.187 251.972 204.687 247.471 202.187 246.471C202.187 245.671 200.187 245.471 199.687 244.971C197.853 245.315 193.686 246.05 189.686 248.237" stroke="#11232A" stroke-width="2"/>
<path d="M148.59 339.175C148.59 343.175 146.59 351.508 145.59 355.175C145.066 357.175 148.59 357.175 154.09 358.175C159.59 359.175 169.59 351.175 182.59 341.675C183.39 348.875 216.09 358.5 230.09 359.675C229.757 349.841 229.09 329.675 229.09 327.675C229.09 325.675 234.757 306.042 237.59 296.475C245.59 304.5 257.498 312 258.498 312.5C258.498 312.5 273.498 321.07 278.498 320C297.998 315.825 317.998 294.65 320.998 291.675C323.998 288.7 303.497 266 298.998 267.5C294.498 269 283.498 282.5 276.498 289C271.998 287.5 247.99 267.375 245.59 262.175C246.59 252.175 241.09 254.175 235.09 250.675C229.09 247.175 216.59 247.675 207.09 249.175C209.09 274.675 183.59 303.175 181.59 303.675C179.59 304.175 170.59 283.175 170.09 277.175C169.59 271.175 171.09 269.675 171.59 265.175C172.09 260.675 172.59 254.675 171.59 248.175C162.79 246.975 145.59 252.175 140.09 257.175L138.59 265.175L107.59 287.175C100.09 281.675 86.5903 265.175 84.5903 265.175C82.0903 265.175 61.5904 285.175 62.0904 288.675C66.0904 295.675 93.0903 316.675 106.09 317.675C116.49 318.475 137.81 302.341 147.169 294.175C148.117 310.03 148.59 335.734 148.59 339.175Z" fill="#63858F"/>
<path d="M147.169 294.175C148.117 310.03 148.59 335.734 148.59 339.175C148.59 343.175 146.59 351.508 145.59 355.175C145.066 357.175 148.59 357.175 154.09 358.175C159.59 359.175 169.59 351.175 182.59 341.675M147.169 294.175C146.74 286.992 146.214 281.831 145.59 281.675C146.316 284.875 143.893 284.008 142.59 283.175C143.925 282.841 146.71 284.575 147.169 294.175ZM147.169 294.175C137.81 302.341 116.49 318.475 106.09 317.675C93.0903 316.675 66.0904 295.675 62.0904 288.675C61.5904 285.175 82.0903 265.175 84.5903 265.175C86.5903 265.175 100.09 281.675 107.59 287.175L138.59 265.175L140.09 257.175C145.59 252.175 162.79 246.975 171.59 248.175C172.59 254.675 172.09 260.675 171.59 265.175C171.09 269.675 169.59 271.175 170.09 277.175C170.59 283.175 179.59 304.175 181.59 303.675M181.59 303.675C183.59 303.175 209.09 274.675 207.09 249.175C216.59 247.675 229.09 247.175 235.09 250.675C241.09 254.175 246.59 252.175 245.59 262.175C247.99 267.375 271.998 287.5 276.498 289C283.498 282.5 294.498 269 298.998 267.5C303.497 266 323.998 288.7 320.998 291.675C317.998 294.65 297.998 315.825 278.498 320C273.498 321.07 258.498 312.5 258.498 312.5C257.498 312 245.59 304.5 237.59 296.475M181.59 303.675C182.59 306.175 187.59 312.675 190.59 320.175C191.86 323.348 185.757 337.341 182.59 341.675M237.59 296.475C233.368 294.714 229.335 293.03 226.09 291.675L237.59 296.475ZM237.59 296.475C234.757 306.042 229.09 325.675 229.09 327.675C229.09 329.675 229.757 349.841 230.09 359.675C216.09 358.5 183.39 348.875 182.59 341.675M179.09 320.175C177.757 320.175 174.59 320.95 174.59 324.175C174.59 327.175 177.257 329.508 179.09 329.175C180.924 328.841 183.09 327.721 183.09 324.675C183.09 321.675 180.424 320.175 179.09 320.175Z" stroke="black" stroke-width="2"/>
<path d="M181.5 185.5C183.5 187.5 183.667 193 183.5 195.5C168.833 198.5 133.833 199 130.5 195C125.5 189 127.5 189 129 189C140.5 190 176.5 186 181.5 185.5Z" fill="white"/>
<path d="M131 195.5C129 194.3 127.5 191 127 189.5C123.667 190.833 117.5 195.4 119.5 203C122 212.5 145.5 218.5 149 218.5C151 216.1 154.5 212.5 156 211L156.5 205L155.5 198.5C148.167 198 133 196.7 131 195.5Z" fill="#59102B"/>
<path d="M149 218.5C155.167 210.167 170 197.5 194 208C186.5 215.5 160 221 149 218.5Z" fill="#EA7E93"/>
<path d="M183.5 195.5C183.5 190.3 182 186.093 181 184.26C187 183.26 195 185.5 196 188.5C197 191.5 188 195.5 183.5 195.5Z" fill="#C99AB3"/>
<path d="M194 207.5C207.6 201.1 200.667 191.167 195.5 187V191.5C189.5 196.5 166.5 199 155.5 199C155.5 199.667 156 203.3 156 210.5C176 199.5 184.5 205 194 207.5Z" fill="#2E0813"/>
<path d="M194.587 208.128C197.683 206.081 199.871 204.01 200.837 202.178C203.724 196.701 200.949 190.69 195.683 187.137M194.587 208.128C184.973 214.483 166.603 220.605 148.875 218.619M194.587 208.128C185.361 203.365 163.304 198.795 148.875 218.619M148.875 218.619C141.851 217.833 134.929 215.773 128.691 211.952C113.695 202.766 118.645 192.759 126.544 188.998M195.683 187.137C191.552 184.348 185.888 183.073 180.224 184.754C169.917 187.814 141.574 188.296 128.691 188.154C127.96 188.384 127.24 188.667 126.544 188.998M195.683 187.137V191.129C187.524 195.576 163.475 202.737 132.556 195.804C128.691 194.954 126.973 188.786 126.544 188.998" stroke="black" stroke-width="2"/>
</svg>
