<svg width="24" height="24" viewBox="0 0 24 24" fill="none" xmlns="http://www.w3.org/2000/svg">
<path d="M11.0154 1.9989C10.7597 1.9989 10.4931 2.08491 10.2973 2.27991C10.1415 2.43691 10.2324 2.3949 9.67302 2.8429C8.68119 3.6379 8.22374 4.4539 8.08091 5.9989C7.09906 5.9989 5.11839 5.9989 5.0225 5.9989C4.47115 5.9989 4.02368 6.4469 4.02368 6.9989V13.8739C4.02368 16.5359 5.48795 18.8189 7.48859 19.9989H6.02132C5.46998 19.9989 5.0225 20.4469 5.0225 20.9989C5.0225 21.5509 5.46998 21.9989 6.02132 21.9989H18.0072C18.5585 21.9989 19.006 21.5509 19.006 20.9989C19.006 20.4469 18.5585 19.9989 18.0072 19.9989H16.5089C18.6175 18.7529 20.0048 16.4299 20.0048 13.9989C22.2112 13.9989 24.0001 12.2079 24.0001 9.9989C24.0001 7.7899 22.2112 5.9989 20.0048 5.9989C19.0919 5.9989 19.2557 5.9989 19.006 5.9989C18.975 5.9989 18.158 5.9989 18.0072 5.9989C17.5677 5.9989 16.1973 5.9989 15.1046 5.9989C15.1925 5.2229 15.3583 4.82691 15.8847 4.40491C16.5349 3.88391 16.492 3.9529 16.7277 3.7179C17.1172 3.3269 17.1172 2.67091 16.7277 2.27991C16.5319 2.08491 16.2652 1.9989 16.0095 1.9989C15.7538 1.9989 15.4872 2.08491 15.2914 2.27991C15.1356 2.43691 15.2265 2.3949 14.6671 2.8429C13.6823 3.6319 13.2498 4.4739 13.107 5.9989C11.7665 5.9989 11.382 5.9989 10.1105 5.9989C10.2004 5.2129 10.3592 4.83091 10.8906 4.40491C11.5408 3.88391 11.4979 3.9529 11.7336 3.7179C12.1231 3.3269 12.1231 2.67091 11.7336 2.27991C11.5378 2.08491 11.2711 1.9989 11.0154 1.9989ZM20.0048 7.9989C21.1085 7.9989 22.0025 8.8939 22.0025 9.9989C22.0025 11.1039 21.1085 11.9989 20.0048 11.9989V7.9989Z" fill="#F5F5F5"/>
</svg>
